<svg xmlns="http://www.w3.org/2000/svg" viewBox="0 0 1920 1080" role="img" aria-labelledby="title desc">
  <title id="title">WAPPA Development Corridor</title>
  <desc id="desc">
    Stylized illustration of Ghana and West Africa development supply themes: ports, logistics, agriculture, and modern city infrastructure at golden hour.
  </desc>
  <defs>
    <linearGradient id="sky" x1="0" y1="0" x2="0" y2="1">
      <stop offset="0%" stop-color="#0f2538" />
      <stop offset="45%" stop-color="#183652" />
      <stop offset="75%" stop-color="#7a5b35" />
      <stop offset="100%" stop-color="#b28b56" />
    </linearGradient>
    <linearGradient id="sunGlow" x1="0" y1="0" x2="1" y2="1">
      <stop offset="0%" stop-color="#ffe8a8" stop-opacity="0.95" />
      <stop offset="100%" stop-color="#ffe8a8" stop-opacity="0" />
    </linearGradient>
    <linearGradient id="water" x1="0" y1="0" x2="0" y2="1">
      <stop offset="0%" stop-color="#1d3a54" />
      <stop offset="100%" stop-color="#0e2335" />
    </linearGradient>
    <linearGradient id="land" x1="0" y1="0" x2="1" y2="1">
      <stop offset="0%" stop-color="#2e503f" />
      <stop offset="100%" stop-color="#1f3a2f" />
    </linearGradient>
    <linearGradient id="fieldA" x1="0" y1="0" x2="1" y2="1">
      <stop offset="0%" stop-color="#c8a86a" />
      <stop offset="100%" stop-color="#9d7f4f" />
    </linearGradient>
    <linearGradient id="road" x1="0" y1="0" x2="1" y2="0">
      <stop offset="0%" stop-color="#e5c986" />
      <stop offset="100%" stop-color="#caa261" />
    </linearGradient>
    <filter id="softBlur" x="-20%" y="-20%" width="140%" height="140%">
      <feGaussianBlur stdDeviation="22" />
    </filter>
    <pattern id="grid" width="56" height="56" patternUnits="userSpaceOnUse">
      <path d="M56 0H0V56" fill="none" stroke="#efcb86" stroke-opacity="0.08" stroke-width="1" />
    </pattern>
  </defs>

  <rect width="1920" height="1080" fill="url(#sky)" />
  <circle cx="1455" cy="210" r="320" fill="url(#sunGlow)" filter="url(#softBlur)" />
  <rect width="1920" height="1080" fill="url(#grid)" />

  <path d="M0 525C300 465 540 430 780 465C975 492 1205 550 1455 545C1650 542 1775 510 1920 455V1080H0Z" fill="#162f45" opacity="0.9" />
  <path d="M0 600C280 560 520 555 790 588C1040 617 1300 690 1600 676C1716 671 1820 650 1920 615V1080H0Z" fill="url(#water)" />

  <path d="M0 744C200 699 420 698 620 742C830 787 1010 857 1215 874C1415 892 1668 864 1920 806V1080H0Z" fill="url(#land)" />
  <path d="M0 830C230 778 406 785 615 829C790 864 980 938 1185 956C1398 975 1662 941 1920 892V1080H0Z" fill="#294a39" />

  <path d="M102 873C322 828 511 840 701 894C851 937 1006 1001 1186 1017C1347 1031 1508 1006 1710 962L1920 928V1080H0V906Z" fill="url(#fieldA)" opacity="0.95" />
  <path d="M0 930C215 888 394 904 563 942C736 981 917 1038 1112 1052C1326 1066 1557 1036 1920 961V1080H0Z" fill="#8f7348" opacity="0.75" />

  <path d="M0 917C305 853 533 876 747 951C978 1032 1165 1088 1465 1080H1920V1035C1557 1094 1332 1096 1125 1059C945 1028 757 970 541 934C366 905 184 906 0 933Z" fill="url(#road)" opacity="0.82" />

  <g transform="translate(1065,450)" fill="#132b3e">
    <rect x="0" y="78" width="44" height="188" />
    <rect x="55" y="46" width="37" height="220" />
    <rect x="99" y="12" width="52" height="254" />
    <rect x="160" y="82" width="29" height="184" />
    <rect x="195" y="32" width="39" height="234" />
    <rect x="242" y="58" width="31" height="208" />
    <rect x="282" y="20" width="47" height="246" />
    <rect x="338" y="98" width="27" height="168" />
    <rect x="370" y="52" width="34" height="214" />
    <rect x="412" y="70" width="36" height="196" />
  </g>

  <g transform="translate(1325,530)">
    <g stroke="#f4ce89" stroke-width="4" stroke-linecap="round" fill="none">
      <path d="M0 148V4" />
      <path d="M0 22L98 70" />
      <path d="M0 53L109 53" />

      <path d="M150 148V0" />
      <path d="M150 16L242 58" />
      <path d="M150 48L256 48" />

      <path d="M305 148V12" />
      <path d="M305 34L390 79" />
      <path d="M305 63L410 63" />
    </g>
    <g fill="#caa262">
      <rect x="-18" y="148" width="82" height="22" />
      <rect x="132" y="148" width="82" height="22" />
      <rect x="287" y="148" width="82" height="22" />
      <rect x="-4" y="174" width="62" height="18" />
      <rect x="145" y="174" width="62" height="18" />
      <rect x="299" y="174" width="62" height="18" />
    </g>
  </g>

  <g transform="translate(660,574)" opacity="0.85">
    <rect x="0" y="0" width="74" height="32" fill="#d1ae72" />
    <rect x="80" y="0" width="74" height="32" fill="#c89f62" />
    <rect x="160" y="0" width="74" height="32" fill="#d7b47a" />
    <rect x="240" y="0" width="74" height="32" fill="#b58f57" />
    <rect x="320" y="0" width="74" height="32" fill="#d1ae72" />
    <rect x="24" y="38" width="74" height="32" fill="#c79f66" />
    <rect x="104" y="38" width="74" height="32" fill="#d7b980" />
    <rect x="184" y="38" width="74" height="32" fill="#c89f62" />
    <rect x="264" y="38" width="74" height="32" fill="#d1ae72" />
  </g>

  <g stroke="#e9c889" stroke-opacity="0.35" stroke-width="2.5" fill="none">
    <path d="M180 827C311 778 469 773 595 812" />
    <path d="M452 962C655 917 835 931 1002 991" />
    <path d="M1106 1004C1276 978 1433 983 1604 949" />
  </g>

  <rect y="1007" width="1920" height="73" fill="#0b1e2e" opacity="0.52" />
</svg>
